<svg xmlns="http://www.w3.org/2000/svg" width="205.6" height="331.8"><ellipse opacity=".1" fill="#010101" cx="102.8" cy="324.6" rx="102.8" ry="7.3"/><path fill="#3BD771" d="M172.7 168.5H32L22 61.9h160.7z"/><path fill="#3BD771" d="M180.3 299.6H24.4l-11-138.1h178z"/><path fill="#121E35" d="M189.1 101.4c0 12.3-10 22.2-22.2 22.2H40.1c-12.3 0-22.2-10-22.2-22.2 0-12.3 10-22.2 22.2-22.2h126.7c12.3 0 22.3 10 22.3 22.2z"/><path fill="#35BC5E" d="M140.9 147.3c0 2.2-1.8 4-4 4 0 0-25.9 3.4-34.5 3.4-8.6 0-34.4-3.4-34.4-3.4-2.2 0-4-1.8-4-4V138h77v9.3z"/><path fill="#9B9A9A" d="M67.9 58.2s-1.3-32-13.3-41.7-3-.6-2.7 0c8 12.4 9.7 41.7 9.7 41.7h6.3z"/><circle fill="#3BD771" cx="64.2" cy="62.5" r="11.4"/><circle fill="#121E35" cx="50.7" cy="9.7" r="9.7"/><path fill="#9B9A9A" d="M136.8 58.2s1.3-32 13.3-41.7 3-.6 2.7 0c-8 12.4-9.7 41.7-9.7 41.7h-6.3z"/><circle fill="#3BD771" cx="140.5" cy="62.5" r="11.4"/><circle fill="#121E35" cx="154" cy="9.7" r="9.7"/><path opacity=".2" fill="#FFF" d="M102.8 79.2c-5 5.9-9.2 11.3-9 12.1.6 1.9 12.7 5.7 13.1 6.8.4 1.1-11 25.1-10.4 25.5.7.4 25-27.2 24.6-29.2-.4-2-12.8-6-13.1-6.8-.1-.3 1.4-4 3.4-8.4h-8.6z"/><path fill="#121E35" d="M140.3 279.1H64.4l-5.3-97.2h86.6z"/><path fill="#3BD771" d="M85.98 181.77l16.406-16.404 16.404 16.405-16.404 16.405zM84.4 325H43.8l-2.9-36h46.4zm81.8 0h-40.6l-2.9-36H169z"/><path fill="#35BC5E" d="M30.285 182.394l7.673-.639 8.267 99.361-7.673.639zM164.2 281.653l-7.674-.639 8.267-99.36 7.674.638z"/><path fill="#090F19" d="M67.2 203.8h70.3v6H67.2zm1.7 15.3h66.8v6H68.9zm2.3 15.3h62.3v6H71.2zm2 15.3h58.3v6H73.2zm2.7 15.3h52.8v6H75.9z"/></svg>